Coordinates
version=1
nRows=29
nColumns=24
inDegrees=yes

Units are S.I. units (second, meters, Newtons, ...)
Angles are in degrees.

endheader
time	pelvis_tilt	pelvis_list	pelvis_rotation	pelvis_tx	pelvis_ty	pelvis_tz	hip_flexion_r	hip_adduction_r	hip_rotation_r	knee_angle_r	ankle_angle_r	subtalar_angle_r	mtp_angle_r	hip_flexion_l	hip_adduction_l	hip_rotation_l	knee_angle_l	ankle_angle_l	subtalar_angle_l	mtp_angle_l	lumbar_extension	lumbar_bending	lumbar_rotation
      5.09500000	     15.22560558	     -8.61035090	     16.91911444	      0.48637795	      0.93284640	     -0.26926381	     -9.78861739	     15.58865232	     -5.42228628	     -8.79629659	     20.30349793	     -5.37105035	      0.00000000	      1.63170315	    -10.83103144	     11.90495594	    -67.54311089	     14.65620468	     -2.43382912	      0.00000000	    -26.74633714	     15.04766331	    -12.73273948
      5.10000000	     15.12393488	     -8.31611015	     16.68236717	      0.49254376	      0.93344747	     -0.26895444	    -10.39089657	     15.35398358	     -5.26923217	     -8.42286425	     20.41111995	     -5.26025638	      0.00000000	      2.40256102	    -10.11108624	     11.90050858	    -67.24057998	     15.28075558	     -2.32590320	      0.00000000	    -26.76084250	     14.60911260	    -12.49953832
      5.10500000	     15.13517939	     -7.98511036	     16.21473607	      0.49871478	      0.93419333	     -0.26845301	    -11.13685756	     15.05661211	     -4.91840882	     -8.09820345	     20.61486668	     -5.04048194	      0.00000000	      2.93748736	     -9.40282465	     11.62564401	    -66.78431305	     15.85578725	     -2.32972658	      0.00000000	    -26.97781819	     14.06903353	    -11.98688826
      5.11000000	     15.02860523	     -7.69352664	     15.90493365	      0.50483026	      0.93470060	     -0.26813815	    -11.71486081	     14.78707454	     -4.77909804	     -7.76837036	     20.80645121	     -4.79815516	      0.00000000	      3.66216079	     -8.69938096	     11.53059439	    -66.29236787	     16.39457480	     -2.29261096	      0.00000000	    -27.00849986	     13.61410287	    -11.67546193
      5.11500000	     14.95564371	     -7.40881100	     15.54473645	      0.51094335	      0.93520602	     -0.26776609	    -12.32747006	     14.51887870	     -4.58979886	     -7.44316385	     20.98595181	     -4.56968043	      0.00000000	      4.31882719	     -8.03411745	     11.37095580	    -65.69982899	     16.91094951	     -2.21321940	      0.00000000	    -27.08645237	     13.15069483	    -11.29497650
      5.12000000	     14.89561065	     -7.13092580	     15.18660969	      0.51704340	      0.93566743	     -0.26740241	    -12.94528037	     14.25552221	     -4.40877001	     -7.12103341	     21.15851697	     -4.35401755	      0.00000000	      4.94675736	     -7.39448717	     11.20783032	    -65.01935164	     17.40109359	     -2.11641069	      0.00000000	    -27.17581225	     12.69826871	    -10.91379458
      5.12500000	     14.84261827	     -6.86318992	     14.82484238	      0.52312721	      0.93608105	     -0.26704350	    -13.56040305	     13.99664657	     -4.23647487	     -6.80432949	     21.32919913	     -4.13548948	      0.00000000	      5.55086206	     -6.78267353	     11.03779671	    -64.25121395	     17.86182576	     -2.00639401	      0.00000000	    -27.27107765	     12.25793287	    -10.52466709
      5.13000000	     14.79412863	     -6.60801920	     14.46431554	      0.52920001	      0.93644227	     -0.26670727	    -14.16917235	     13.74510016	     -4.07751110	     -6.49556051	     21.49620864	     -3.92333450	      0.00000000	      6.13473369	     -6.20052442	     10.86307367	    -63.39851337	     18.29666027	     -1.88431094	      0.00000000	    -27.36863344	     11.83566727	    -10.13249910
      5.13500000	     14.75470992	     -6.36575541	     14.09934248	      0.53525826	      0.93675591	     -0.26636977	    -14.77647235	     13.50141526	     -3.91785949	     -6.19582243	     21.65655674	     -3.71176505	      0.00000000	      6.69047705	     -5.64983985	     10.68826532	    -62.45979334	     18.70135956	     -1.75089752	      0.00000000	    -27.47289494	     11.42670525	     -9.73083044
      5.14000000	     14.71292916	     -6.14040719	     13.74301000	      0.54130464	      0.93700449	     -0.26606412	    -15.36830626	     13.27002613	     -3.77412733	     -5.90387536	     21.82338706	     -3.51778167	      0.00000000	      7.23290284	     -5.13014143	     10.52546755	    -61.43862997	     19.08274240	     -1.59497288	      0.00000000	    -27.56529112	     11.04456419	     -9.34542397
      5.14500000	     14.70694031	     -5.92181197	     13.35577656	      0.54733317	      0.93725461	     -0.26571394	    -15.99515232	     13.03947888	     -3.60169744	     -5.61442297	     21.95384325	     -3.30186942	      0.00000000	      7.70898406	     -4.64858406	     10.32885151	    -60.33012180	     19.42446310	     -1.45680729	      0.00000000	    -27.71648527	     10.64856125	     -8.89302935
      5.15000000	     14.70591887	     -5.71817207	     12.97913835	      0.55335957	      0.93744982	     -0.26541234	    -16.61432985	     12.82016530	     -3.44406103	     -5.33744701	     22.09309525	     -3.11438704	      0.00000000	      8.15747246	     -4.19540939	     10.15344568	    -59.13628230	     19.74424190	     -1.29406539	      0.00000000	    -27.85960545	     10.28618213	     -8.46644996
      5.15500000	     14.70189097	     -5.53291597	     12.61192863	      0.55937715	      0.93757858	     -0.26512458	    -17.21502648	     12.61525038	     -3.29319683	     -5.07573157	     22.23940036	     -2.93427869	      0.00000000	      8.58920991	     -3.77753004	      9.99072777	    -57.86255022	     20.04792017	     -1.12253323	      0.00000000	    -27.99389718	      9.94908087	     -8.04606892
      5.16000000	     14.72164400	     -5.36282518	     12.22912665	      0.56539362	      0.93769008	     -0.26484034	    -17.83584219	     12.41871996	     -3.13374254	     -4.81743328	     22.36340222	     -2.76084978	      0.00000000	      8.96613189	     -3.39756079	      9.82418716	    -56.50479124	     20.31094627	     -0.94151642	      0.00000000	    -28.15574548	      9.62163384	     -7.59902898
      5.16500000	     14.72986703	     -5.21162897	     11.86615122	      0.57138191	      0.93772187	     -0.26459719	    -18.42655549	     12.23745485	     -2.98725091	     -4.57713288	     22.49731018	     -2.60089176	      0.00000000	      9.33712670	     -3.04633919	      9.68705365	    -55.07370832	     20.56571086	     -0.74486441	      0.00000000	    -28.30198268	      9.32690544	     -7.18145441
      5.17000000	     14.65864569	     -5.11312662	     11.61027207	      0.57740290	      0.93756018	     -0.26441165	    -18.91104885	     12.12989251	     -2.91812228	     -4.33668924	     22.60647594	     -2.49096212	      0.00000000	      9.80447256	     -2.73952387	      9.67680552	    -53.60632556	     20.79285686	     -0.44594603	      0.00000000	    -28.32051766	      9.10397597	     -6.88145899
      5.17500000	     14.78457763	     -4.97506386	     11.11246479	      0.58336797	      0.93768543	     -0.26410930	    -19.61331724	     11.91785770	     -2.66212780	     -4.14737110	     22.73782856	     -2.28333248	      0.00000000	      9.94504894	     -2.47321215	      9.42684440	    -51.96743840	     20.97013095	     -0.35148512	      0.00000000	    -28.63003888	      8.79388756	     -6.27598291
      5.18000000	     14.84067477	     -4.86384757	     10.74800344	      0.58938891	      0.93762193	     -0.26389219	    -20.23042245	     11.76442452	     -2.50649427	     -3.94216016	     22.86070286	     -2.14198173	      0.00000000	     10.16288759	     -2.22210471	      9.32631632	    -50.29033795	     21.14254136	     -0.13904125	      0.00000000	    -28.81879572	      8.54162382	     -5.85256114
      5.18500000	     14.78186124	     -4.81569916	     10.48399031	      0.59542031	      0.93732902	     -0.26375752	    -20.69693620	     11.68698771	     -2.42951423	     -3.75091048	     22.97144438	     -2.02750644	      0.00000000	     10.51640033	     -2.01566141	      9.35354749	    -48.59127857	     21.27985209	      0.18141997	      0.00000000	    -28.84926129	      8.37829101	     -5.54490378
      5.19000000	     14.91678644	     -4.74661639	     10.00769686	      0.60141116	      0.93729449	     -0.26350506	    -21.37157902	     11.52523423	     -2.17940227	     -3.60919008	     23.10464239	     -1.83124808	      0.00000000	     10.55544026	     -1.86630278	      9.17154215	    -46.73305672	     21.38302534	      0.28134649	      0.00000000	    -29.14869096	      8.14407207	     -4.96039941
      5.19500000	     14.87763502	     -4.72428307	      9.74813631	      0.60747621	      0.93693846	     -0.26338280	    -21.84144082	     11.46682904	     -2.10552074	     -3.45125866	     23.19743377	     -1.72202038	      0.00000000	     10.81102546	     -1.72404917	      9.22979627	    -44.88469553	     21.43594653	      0.61186746	      0.00000000	    -29.19769954	      8.00786641	     -4.64728753
      5.20000000	     15.06405909	     -4.69369881	      9.27438115	      0.61350606	      0.93686159	     -0.26316172	    -22.55719648	     11.33074767	     -1.83547543	     -3.33296758	     23.31483999	     -1.52730902	      0.00000000	     10.71799663	     -1.65220422	      9.08856878	    -42.88579158	     21.44836514	      0.69398115	      0.00000000	    -29.54560323	      7.82635145	     -4.05751583
      5.20500000	     15.14249873	     -4.69141225	      8.92343910	      0.61960230	      0.93657697	     -0.26301206	    -23.14393700	     11.25115925	     -1.67809763	     -3.21664946	     23.41804291	     -1.35361594	      0.00000000	     10.73764625	     -1.59291678	      9.08308854	    -40.86795732	     21.40868169	      0.89741085	      0.00000000	    -29.73768719	      7.68951218	     -3.61867311
      5.21000000	     15.21758164	     -4.73089770	      8.56720094	      0.62570973	      0.93622987	     -0.26286179	    -23.70929703	     11.20114660	     -1.50236576	     -3.13202831	     23.52232033	     -1.17470605	      0.00000000	     10.72999376	     -1.59193929	      9.09340919	    -38.80182180	     21.32487673	      1.07763824	      0.00000000	    -29.92272769	      7.59706981	     -3.16722394
      5.21500000	     15.20741530	     -4.79687964	      8.24830676	      0.63191236	      0.93572539	     -0.26273062	    -24.17611587	     11.17671103	     -1.37189710	     -3.06160489	     23.65966599	     -0.96927291	      0.00000000	     10.78863845	     -1.61810134	      9.15398173	    -36.70998255	     21.18212512	      1.30739284	      0.00000000	    -29.98667690	      7.53012294	     -2.76438840
      5.22000000	     15.36301496	     -4.88723920	      7.86800722	      0.63804281	      0.93537636	     -0.26255777	    -24.80633801	     11.15677215	     -1.13440650	     -3.02686580	     23.71591170	     -0.79920622	      0.00000000	     10.61505354	     -1.71974098	      9.15796485	    -34.54354058	     21.00075160	      1.42653025	      0.00000000	    -30.26832367	      7.48309632	     -2.28434781
      5.22500000	     15.33411765	     -5.03598859	      7.57769175	      0.64425962	      0.93471903	     -0.26250798	    -25.21161489	     11.20087287	     -1.01991452	     -3.03447845	     23.86096040	     -0.53117034	      0.00000000	     10.64605077	     -1.84187201	      9.30449609	    -32.40735640	     20.74302154	      1.52544839	      0.00000000	    -30.31047190	      7.50890172	     -1.82756338
      5.23000000	     15.40384750	     -5.20775961	      7.22272089	      0.65051654	      0.93414553	     -0.26236144	    -25.73235215	     11.24287349	     -0.79982436	     -3.03822723	     23.97921016	     -0.28376644	      0.00000000	     10.52202110	     -2.04093278	      9.36217801	    -30.23282312	     20.42783530	      1.62883469	      0.00000000	    -30.46139461	      7.54651674	     -1.34596493
      5.23500000	     15.43537169	     -5.40982082	      6.93131046	      0.65680634	      0.93345534	     -0.26227304	    -26.18966242	     11.33015798	     -0.62744150	     -3.08558547	     24.07197904	     -0.04147598	      0.00000000	     10.42655541	     -2.26592609	      9.50236552	    -28.06776548	     20.07090207	      1.68678336	      0.00000000	    -30.56287310	      7.62636151	     -0.89972850
